<svg width="64" height="64" viewBox="0 0 64 64" fill="none" xmlns="http://www.w3.org/2000/svg">
<rect width="64" height="64" fill="#FA462B"/>
<path fill-rule="evenodd" clip-rule="evenodd" d="M22 14C14.268 14 8 20.268 8 28V36C8 43.732 14.268 50 22 50H42C49.732 50 56 43.732 56 36V28C56 20.268 49.732 14 42 14H22ZM17 17C13.6863 17 11 19.6863 11 23V41C11 44.3137 13.6863 47 17 47H47C50.3137 47 53 44.3137 53 41V23C53 19.6863 50.3137 17 47 17H17Z" fill="#C4D7D0"/>
<path fill-rule="evenodd" clip-rule="evenodd" d="M22 18C16.4772 18 12 22.4772 12 28V36C12 41.5228 16.4772 46 22 46H42C47.5228 46 52 41.5228 52 36V28C52 22.4772 47.5228 18 42 18H22ZM17 21C15.8954 21 15 21.8954 15 23V41C15 42.1046 15.8954 43 17 43H47C48.1046 43 49 42.1046 49 41V23C49 21.8954 48.1046 21 47 21H17Z" fill="#C4D7D0"/>
<path fill-rule="evenodd" clip-rule="evenodd" d="M22 22C18.6863 22 16 24.6863 16 28V36C16 39.3137 18.6863 42 22 42H42C45.3137 42 48 39.3137 48 36V28C48 24.6863 45.3137 22 42 22H22ZM20 25C19.4477 25 19 25.4477 19 26V38C19 38.5523 19.4477 39 20 39H44C44.5523 39 45 38.5523 45 38V26C45 25.4477 44.5523 25 44 25H20Z" fill="#C4D7D0"/>
</svg>
