<svg width="69" height="36" viewBox="0 0 69 36" fill="none" xmlns="http://www.w3.org/2000/svg">
<path d="M36 3V33H66V3H36ZM60 21H54V27H48V21H42V15H48V9H54V15H60V21ZM48 15V21H54V15H48Z" fill="#C1D8D3"/>
<path d="M18.3491 21C20.0445 21 21.4188 19.6569 21.4188 18C21.4188 16.3431 20.0445 15 18.3491 15C16.6537 15 15.2793 16.3431 15.2793 18C15.2793 19.6569 16.6537 21 18.3491 21Z" fill="#C1D8D3"/>
<path d="M3 3V33H33V3H3ZM18 27C13.0275 27 9 22.9724 9 18C9 13.0276 13.0275 9 18 9C22.9725 9 27 13.0276 27 18C27 22.9724 22.9725 27 18 27Z" fill="#C1D8D3"/>
</svg>
